<svg width="245" height="201" viewBox="0 0 245 201" fill="none" xmlns="http://www.w3.org/2000/svg">
<path d="M126.788 172.985L216.335 117.428C217.264 116.847 218.036 116.012 218.576 115.005C219.116 113.998 219.403 112.854 219.41 111.689C219.417 110.523 219.143 109.375 218.615 108.361C218.087 107.346 217.324 106.5 216.402 105.907L134.658 53.6499C132.791 52.4575 130.667 51.8251 128.502 51.8169C126.337 51.8087 124.209 52.425 122.335 53.6032L30.5454 111.287C29.6462 111.852 28.9007 112.666 28.385 113.647C27.8693 114.628 27.6018 115.74 27.6099 116.87C27.618 118 27.9014 119.107 28.4311 120.079C28.9607 121.051 29.7178 121.852 30.625 122.402L114.427 173.072C116.321 174.214 118.453 174.805 120.618 174.79C122.783 174.775 124.907 174.153 126.788 172.985V172.985Z" fill="#6C8897"/>
<path d="M201.561 126.609C200.673 127.162 104.872 64.0173 104.872 64.0173L122.837 53.1632C124.564 52.119 126.511 51.5833 128.487 51.6091C130.462 51.6348 132.397 52.221 134.101 53.3099L217.401 106.547C218.227 107.075 218.911 107.831 219.384 108.738C219.857 109.644 220.103 110.671 220.097 111.713C220.091 112.756 219.833 113.779 219.349 114.679C218.865 115.579 218.172 116.325 217.339 116.841L201.561 126.609Z" fill="#336681"/>
<path d="M53.2875 96.9798C54.8923 95.913 150.062 158.544 150.062 158.544L126.628 173.085C124.794 174.223 122.721 174.828 120.61 174.841C118.499 174.854 116.42 174.274 114.574 173.159L29.2469 121.562C28.4774 121.097 27.835 120.419 27.3852 119.596C26.9355 118.774 26.6946 117.835 26.6871 116.878C26.6796 115.92 26.9059 114.978 27.3427 114.147C27.7795 113.316 28.4113 112.626 29.1734 112.148L53.2875 96.9798Z" fill="#336681"/>
<path d="M118.402 108.427V108.094C118.431 108.094 118.46 108.085 118.485 108.069C118.51 108.052 118.53 108.029 118.543 108.001C119.658 106.067 111.849 85.7923 108.743 78.145L109.025 78.0117C109.484 79.1384 120.234 105.7 118.825 108.181C118.782 108.26 118.72 108.325 118.646 108.369C118.571 108.412 118.487 108.432 118.402 108.427V108.427Z" fill="#336681"/>
<path d="M124.232 83.5656L107.929 99.765L108.135 100.011L124.439 83.8119L124.232 83.5656Z" fill="#336681"/>
<path d="M116.144 78.3799L113.87 106.453L114.175 106.482L116.45 78.4092L116.144 78.3799Z" fill="#336681"/>
<path d="M104.954 87.1988L104.79 87.4804L126.931 102.758L127.095 102.476L104.954 87.1988Z" fill="#336681"/>
<path d="M146.945 101.931L146.664 102.063L158.487 132.046L158.768 131.915L146.945 101.931Z" fill="#336681"/>
<path d="M162.126 111.148L145.653 123.583L145.827 123.857L162.301 111.422L162.126 111.148Z" fill="#336681"/>
<path d="M154.078 102.317L151.803 130.39L152.108 130.42L154.383 102.346L154.078 102.317Z" fill="#336681"/>
<path d="M142.891 111.136L142.727 111.418L164.868 126.695L165.032 126.414L142.891 111.136Z" fill="#336681"/>
<path d="M132.055 107.674L131.442 114.154L136.557 117.741C136.557 117.741 134.719 120.475 133.654 120.975C132.588 121.475 126.095 116.888 126.095 116.888L128.386 113.308H129.758L130.738 106.254" fill="#336681"/>
<path d="M129.764 66.5908C129.764 66.5908 142.418 77.0783 142.712 81.8319C143.006 86.5856 130.616 92.7794 130.616 92.7794L127.725 86.0256L134.683 82.2986L126.438 73.558" fill="#FB9562"/>
<path d="M134.536 82.3853C137.255 82.8987 140.226 82.8054 142.572 81.2386C141.347 76.2315 129.709 66.5708 129.709 66.5708L124.84 74.4314L134.64 82.3053L134.536 82.3853Z" fill="#080100"/>
<path d="M157.376 133.436C155.411 133.382 153.492 132.773 151.808 131.669C148.411 129.427 145.678 126.169 143.937 122.282C139.895 113.668 140.961 104.24 146.308 101.26C151.655 98.2798 159.305 102.867 163.348 111.481C167.39 120.095 166.324 129.522 160.977 132.502C159.862 133.121 158.627 133.441 157.376 133.436V133.436ZM149.958 102.333C148.986 102.325 148.027 102.569 147.159 103.047C142.712 105.52 142.002 113.714 145.585 121.375C147.159 124.911 149.634 127.88 152.715 129.929C155.422 131.602 158.062 131.889 160.15 130.729C164.603 128.255 165.308 120.061 161.724 112.401C158.84 106.254 154.038 102.333 149.958 102.333V102.333Z" fill="#080100"/>
<path d="M152.984 117.475L147.766 101.473C147.508 100.68 146.841 99.4732 146.835 98.6198C146.835 97.5131 148.396 95.6396 149.383 96.033C150.369 96.4263 150.608 97.9864 150.871 98.9865C152.549 104.654 154.197 110.321 155.985 115.954C156.371 117.161 158.141 116.621 157.756 115.421C156.457 111.321 155.018 107.247 153.848 103.1C153.143 100.6 152.831 97.5264 151.496 95.2929C149.34 91.6727 144.293 94.8129 144.924 98.7332C145.444 101.947 147.073 105.32 148.072 108.387L151.208 118.001C151.6 119.208 153.376 118.668 152.978 117.468L152.984 117.475Z" fill="#336681"/>
<path d="M144.008 79.2633L142.262 79.8834L146.831 95.1225L148.576 94.5024L144.008 79.2633Z" fill="#336681"/>
<path d="M130.573 106.407L112.431 94.2262L126.739 83.3121L147.251 90.4593L130.573 106.407ZM115.763 94.1195L130.371 103.927L143.588 91.2593L127.051 85.4922L115.763 94.1195Z" fill="#336681"/>
<path d="M135.621 107.855C136.958 106.4 136.601 103.651 134.824 101.717C133.047 99.7823 130.522 99.3939 129.185 100.849C127.848 102.305 128.205 105.053 129.982 106.988C131.759 108.922 134.284 109.31 135.621 107.855Z" fill="#336681"/>
<path d="M119.56 109.334C114.764 109.334 109.288 105.034 106.085 98.2065C104.212 94.3985 103.385 90.0844 103.702 85.7789C104.113 81.7186 105.797 78.6651 108.455 77.1849C111.114 75.7048 114.378 76.0049 117.643 78.025C120.985 80.3316 123.697 83.5715 125.497 87.4073C127.297 91.243 128.119 95.5341 127.878 99.8333C127.474 103.894 125.783 106.947 123.125 108.427C122.02 109.035 120.798 109.345 119.56 109.334V109.334ZM112.088 78.265C111.122 78.2555 110.169 78.4978 109.307 78.9717C107.218 80.1318 105.883 82.632 105.54 85.9989C105.261 89.9167 106.022 93.8393 107.733 97.2997C111.316 104.934 117.851 109.127 122.298 106.634C124.387 105.474 125.722 102.974 126.065 99.6066C126.267 95.6947 125.511 91.7946 123.872 88.3058C122.234 84.8169 119.774 81.8648 116.743 79.7518C115.335 78.8277 113.731 78.3156 112.088 78.265V78.265Z" fill="#080100"/>
<path d="M129.764 111.634L135.822 117.741C135.822 117.741 134.823 120.661 132.404 119.741C129.985 118.821 125.667 115.168 125.667 115.168V110.501" fill="#080100"/>
<path d="M133.807 86.4456L154.123 73.8714C154.324 73.7329 154.468 73.515 154.525 73.2634C154.581 73.0118 154.546 72.7462 154.426 72.5225C154.306 72.2988 154.111 72.1344 153.882 72.0639C153.653 71.9934 153.408 72.0223 153.198 72.1446L132.882 84.7188C132.681 84.8573 132.537 85.0752 132.481 85.3268C132.424 85.5784 132.46 85.844 132.579 86.0677C132.699 86.2914 132.894 86.4558 133.123 86.5263C133.352 86.5968 133.597 86.5679 133.807 86.4456V86.4456Z" fill="#336681"/>
<path d="M149.897 70.6645L151.545 71.9646C151.545 71.9646 153.823 72.1846 154.032 73.738C154.24 75.2915 151.386 76.8183 150.779 76.5516C150.173 76.2849 151.061 75.3181 149.591 74.6648L148.366 75.3781C148.078 75.039 147.896 74.6096 147.845 74.1511C147.795 73.6925 147.878 73.2284 148.084 72.8246L137.2 57.9969L142.443 55.33L149.897 70.6645Z" fill="#FB9562"/>
<path d="M116.718 69.0377C116.547 72.1667 116.681 75.3066 117.116 78.405C117.839 83.0254 125.728 90.4593 125.728 90.4593L125.667 111.694C125.667 111.694 126.12 113.694 129.342 112.308C129.342 112.308 133.017 93.3195 132.404 90.6793C131.792 88.0391 126.248 70.7845 126.248 70.7845" fill="#FB9562"/>
<path d="M131.932 88.8258C130.438 83.6654 126.248 70.6778 126.248 70.6778L116.718 68.931C116.058 72.0003 115.923 75.1758 116.32 78.2983C116.853 81.7053 122.929 87.7057 125.275 90.4526C127.581 90.4969 129.864 89.9391 131.932 88.8258V88.8258Z" fill="#080100"/>
<path d="M134.707 57.1635C134.707 57.1635 129.887 72.5379 128.392 73.018C126.898 73.498 117.576 71.2645 116.724 69.0177C115.873 66.7709 123.021 47.8295 129.764 48.5495" fill="#336681"/>
<path d="M135.136 79.7051L136.783 81.0052C136.783 81.0052 139.062 81.2253 139.27 82.7787C139.478 84.3321 136.624 85.8589 136.018 85.5922C135.411 85.3256 136.3 84.3588 134.83 83.7054L133.605 84.4188C133.317 84.0797 133.134 83.6502 133.084 83.1917C133.033 82.7332 133.117 82.269 133.323 81.8653L124.84 65.9641L129.348 63.2973L135.136 79.7051Z" fill="#FB9562"/>
<path d="M139.099 47.7095C136.851 46.7761 135.35 46.7761 132.404 47.1294C129.458 47.4828 124.086 50.9897 122.91 54.7233C122.298 56.7235 121.826 62.9706 124.086 69.0844C126.236 68.2576 128.435 67.5909 130.64 66.9575L128.496 60.8838L134.707 57.1635L138.995 62.8639C141.102 61.1571 143.282 59.577 145.481 58.0036C142.853 52.9632 140.14 48.1428 139.099 47.7095Z" fill="#336681"/>
<path d="M139.534 44.6159C139.534 44.6159 138.652 53.7699 136.649 53.5966C134.646 53.4232 131.54 51.7831 131.014 49.3762C130.487 46.9694 130.487 41.6557 132.404 41.3023C134.321 40.949 139.534 44.6159 139.534 44.6159Z" fill="#FB9562"/>
<path d="M136.545 47.8295C136.545 47.8295 135.895 49.8696 135.179 49.3029C134.462 48.7362 134.505 47.3028 134.04 48.0295C133.574 48.7562 134.413 50.0963 133.807 50.303C133.2 50.5097 132.263 48.8762 131.828 49.0629C131.393 49.2496 131.828 50.2363 130.928 50.323C130.028 50.4097 128.729 45.756 129.482 45.1293C130.236 44.5026 135.846 46.1293 136.545 47.8295Z" fill="#653916"/>
<path d="M134.082 47.2828C135.187 47.4744 136.313 47.4631 137.414 47.2494C138.695 46.8827 139.552 45.4026 140.054 43.9959L139.913 43.9359C139.601 42.4757 139.099 40.3022 137.874 39.4422C136.085 38.1888 133.513 38.6555 131.749 39.7222C130.849 40.2303 130.135 41.0585 129.728 42.069C129.415 42.8358 128.809 44.4092 129.483 45.1426C130.156 45.876 132.864 46.476 132.864 46.476C133.245 46.7877 133.653 47.0579 134.082 47.2828V47.2828Z" fill="#336681"/>
<path d="M133.807 45.9027C133.807 45.9027 132.331 49.7696 133.353 52.3698C132.823 52.3278 132.32 52.093 131.926 51.7031C131.926 51.7031 131.185 47.2228 132.398 44.9893" fill="#080100"/>
<path d="M137.874 39.4422C137.874 39.4422 141.463 42.6824 141.586 47.0627C141.708 51.4431 131.001 45.9293 130.72 45.816C130.438 45.7027 129.182 46.5627 129.182 46.5627C129.182 46.5627 127.957 42.6758 128.637 41.5823C129.317 40.4889 131.639 36.7953 137.874 39.4422Z" fill="#336681"/>
<path d="M131.026 66.9709C130.105 64.2973 129.731 61.4373 129.93 58.5903C129.93 58.1636 129.317 58.1636 129.317 58.5903C129.114 61.4746 129.488 64.3725 130.414 67.0842C128.841 67.422 127.265 67.7487 125.685 68.0643C125.164 68.1643 124.46 68.4643 123.982 68.1043C123.505 67.7443 123.186 66.2975 123.015 65.7241C122.194 62.9572 122.218 59.997 122.402 57.1301C122.433 56.7034 121.82 56.7034 121.79 57.1301C121.483 61.1904 121.667 65.3507 123.688 68.8977C123.724 68.959 123.776 69.0068 123.837 69.0343C123.899 69.0618 123.967 69.0676 124.031 69.051C126.216 68.6065 128.398 68.1621 130.579 67.7176C130.729 67.4765 130.868 67.2272 130.995 66.9709H131.026Z" fill="#080100"/>
<path opacity="0.68" d="M59.9515 140.123L63.4489 121.548L57.8322 118.428L40.5904 128.429C44.1 130.762 56.4725 137.683 59.9515 140.123Z" fill="url(#paint0_linear)"/>
<path d="M63.4489 121.548V85.9589H57.0176V121.655C59.192 122.822 61.6298 123.028 63.4489 121.548Z" fill="#A46900"/>
<path d="M60.6375 85.9656V122.595C61.6593 122.579 62.6508 122.215 63.4734 121.555V85.9656H60.6375Z" fill="#653916"/>
<path d="M60.8396 42.3157C60.8396 42.3157 41.9685 55.4967 43.169 60.0303C44.3695 64.564 53.2385 64.0306 53.2385 64.0306C53.2385 64.0306 40.8292 66.7708 40.5046 75.2581C40.2719 81.3252 54.4022 82.592 54.4022 82.592C54.4022 82.592 37.583 89.0991 40.0759 95.833C42.5687 102.567 76.3849 101.233 77.4384 97.7931C78.4919 94.3529 76.2134 85.5255 66.0152 82.5787C66.0152 82.5787 78.9696 82.6853 79.0002 75.7982C79.0002 69.5244 64.8147 64.0373 64.8147 64.0373C64.8147 64.0373 76.2379 65.5641 77.1382 62.1238C78.0386 58.6836 60.8396 42.3157 60.8396 42.3157Z" fill="#26721E"/>
<path d="M79.0125 75.6648C79.0125 69.391 64.827 63.904 64.827 63.904C64.827 63.904 76.2501 65.4308 77.1505 61.9905C77.9345 59.0103 65.121 46.336 61.691 43.0024C62.916 46.9294 65.4885 50.6163 67.5771 53.9499C68.6735 55.6967 70.0884 57.8502 68.2693 59.6103C66.8728 60.9438 64.876 60.5971 63.2835 61.3705C62.5056 61.7505 62.0279 61.6771 62.2668 62.8906C62.5092 63.5024 62.8881 64.0387 63.3693 64.4507C64.3896 65.3628 65.4963 66.154 66.6706 66.8109C69.2921 68.5177 75.4539 72.0046 72.6793 76.2649C71.5584 77.985 69.5555 78.265 67.7793 78.6451C66.346 78.9651 64.6188 79.1651 64.4228 81.0719C64.2023 83.2654 66.2113 85.0055 67.571 86.2523C69.8556 88.3524 71.8585 90.4659 71.9259 93.9395C71.9351 96.0383 71.4001 98.0973 70.3824 99.88C74.333 99.3799 77.1199 98.5932 77.4261 97.6398C78.4796 94.2062 76.2011 85.3722 66.003 82.4253C66.0153 82.4453 78.9696 82.552 79.0125 75.6648Z" fill="#145B0A" fill-opacity="0.24"/>
<path d="M57.0176 100.5V103.447C59.2167 102.614 61.3648 101.63 63.4489 100.5H57.0176Z" fill="#653916"/>
<path opacity="0.68" d="M187.358 117.881L190.022 103.214L186.224 100.9L171.892 107.901C174.697 109.754 184.595 115.941 187.358 117.881Z" fill="url(#paint1_linear)"/>
<path d="M190.022 103.167V80.2452H185.875V103.26C187.278 104.014 188.852 104.14 190.022 103.167Z" fill="#A46900"/>
<path d="M188.197 80.2518V103.834C188.858 103.826 189.501 103.593 190.034 103.167V80.2518H188.197Z" fill="#653916"/>
<path d="M188.338 52.1031C188.338 52.1031 176.173 60.6037 176.945 63.5239C177.717 66.4441 183.438 66.0974 183.438 66.0974C183.438 66.0974 175.438 67.8642 175.23 73.338C175.077 77.2516 184.191 78.0517 184.191 78.0517C184.191 78.0517 173.344 82.272 174.948 86.599C176.553 90.9259 198.358 90.0792 199.038 87.8657C199.718 85.6522 198.26 79.9518 191.688 78.0583C191.688 78.0583 200.042 78.125 200.061 73.6847C200.061 69.6377 190.916 66.1041 190.916 66.1041C190.916 66.1041 198.266 67.0842 198.879 64.8707C199.491 62.6572 188.338 52.1031 188.338 52.1031Z" fill="#26721E"/>
<path d="M200.049 73.6113C200.049 69.5644 190.904 66.0308 190.904 66.0308C190.904 66.0308 198.254 67.0108 198.867 64.7974C199.369 62.8772 191.112 54.7033 188.901 52.5565C189.685 55.09 191.351 57.4635 192.699 59.617C193.403 60.7437 194.316 62.1305 193.146 63.2639C192.245 64.1373 190.959 63.9306 189.93 64.3973C189.428 64.644 189.122 64.5973 189.275 65.3774C189.431 65.7723 189.675 66.1184 189.985 66.3841C190.644 66.9718 191.359 67.4814 192.117 67.9042C193.807 69.0043 197.782 71.2378 195.988 73.998C195.265 75.1048 193.973 75.2848 192.839 75.5315C191.915 75.7382 190.8 75.8648 190.677 77.0983C190.536 78.5117 191.829 79.6384 192.705 80.4318C194.181 81.7653 195.467 83.1454 195.51 85.3855C195.517 86.7396 195.173 88.0684 194.518 89.2191C197.066 88.8991 198.873 88.3924 199.056 87.779C199.736 85.5655 198.279 79.8651 191.706 77.9717C191.676 77.9783 200.03 78.045 200.049 73.6113Z" fill="#145B0A" fill-opacity="0.24"/>
<path d="M185.875 89.6192V91.5193C187.293 90.9824 188.678 90.3477 190.022 89.6192H185.875Z" fill="#653916"/>
<path opacity="0.68" d="M145.426 149.404L156.702 133.056L110.685 104.387L88.3838 110.501C91.924 112.834 140.458 146.023 145.426 149.404Z" fill="url(#paint2_linear)"/>
<path d="M138.939 48.6895C137.554 48.0653 136.374 47.0012 135.552 45.636C134.137 43.3291 128.662 44.4959 128.662 44.4959L128.453 43.0558C128.453 43.0558 132.502 41.4357 134.701 43.0558C136.9 44.6759 137.531 48.3295 138.939 48.6895Z" fill="#336681"/>
<path opacity="0.39" d="M138.939 48.6895C137.554 48.0653 136.374 47.0012 135.552 45.636C134.137 43.3291 128.662 44.4959 128.662 44.4959L128.453 43.0558C128.453 43.0558 132.502 41.4357 134.701 43.0558C136.9 44.6759 137.531 48.3295 138.939 48.6895Z" fill="#080100"/>
<defs>
<linearGradient id="paint0_linear" x1="51.7501" y1="131.882" x2="67.0061" y2="111.143" gradientUnits="userSpaceOnUse">
<stop stop-opacity="0"/>
<stop offset="1" stop-color="#006837"/>
</linearGradient>
<linearGradient id="paint1_linear" x1="5525.5" y1="2912.48" x2="5805.89" y2="2469.72" gradientUnits="userSpaceOnUse">
<stop stop-color="#FD6868" stop-opacity="0"/>
<stop offset="1" stop-color="#006837"/>
</linearGradient>
<linearGradient id="paint2_linear" x1="121.459" y1="123.775" x2="140.812" y2="93.631" gradientUnits="userSpaceOnUse">
<stop stop-opacity="0"/>
<stop offset="1" stop-color="#4D4D4D"/>
</linearGradient>
</defs>
</svg>
